<svg width="485" height="40" viewBox="0 0 485 40" fill="none" xmlns="http://www.w3.org/2000/svg">
<path d="M19.9988 3.33545C10.7944 3.33545 3.33313 10.7967 3.33313 20.0012C3.33313 28.3557 9.48778 35.2553 17.5073 36.4602V24.4176H13.3842V20.0361H17.5073V17.1213C17.5073 12.2949 19.8588 10.1767 23.8703 10.1767C25.7918 10.1767 26.8068 10.3184 27.2884 10.3834V14.2065H24.5519C22.8487 14.2065 22.2537 15.8214 22.2537 17.6413V20.0361H27.2451L26.5685 24.4176H22.2554V36.4952C30.3899 35.3936 36.6645 28.4373 36.6645 20.0012C36.6645 10.7967 29.2033 3.33545 19.9988 3.33545Z" fill="white" fill-opacity="0.8"/>
<path d="M108.997 3.33521C99.807 3.33521 92.3308 10.4381 92.3308 19.1676C92.3308 23.409 94.144 27.4805 97.3305 30.4536V37.6966L104.13 34.2984C105.728 34.7634 107.363 35 108.997 35C118.186 35 125.662 27.8971 125.662 19.1676C125.662 10.4381 118.186 3.33521 108.997 3.33521ZM110.941 24.029L106.08 20.1409L97.3305 24.029L107.052 14.3079L111.913 18.196L120.663 14.3062L110.941 24.029Z" fill="white" fill-opacity="0.8"/>
<path d="M204.661 5H191.328C186.727 5 182.995 8.73167 182.995 13.3333V26.6667C182.995 31.2683 186.727 35 191.328 35H204.661C209.262 35 212.993 31.2683 212.993 26.6667V13.3333C212.993 8.73167 209.262 5 204.661 5ZM197.994 28.3333C193.393 28.3333 189.661 24.6017 189.661 20C189.661 15.3983 193.393 11.6667 197.994 11.6667C202.596 11.6667 206.327 15.3983 206.327 20C206.327 24.6017 202.596 28.3333 197.994 28.3333ZM207.994 11.6667C207.074 11.6667 206.327 10.92 206.327 10C206.327 9.08 207.074 8.33333 207.994 8.33333C208.914 8.33333 209.66 9.08 209.66 10C209.66 10.92 208.914 11.6667 207.994 11.6667Z" fill="white" fill-opacity="0.8"/>
<path d="M197.994 25C200.755 25 202.994 22.7614 202.994 20C202.994 17.2386 200.755 15 197.994 15C195.233 15 192.995 17.2386 192.995 20C192.995 22.7614 195.233 25 197.994 25Z" fill="white" fill-opacity="0.8"/>
<path d="M298.658 5.00171H275.326C273.484 5.00171 271.993 6.49329 271.993 8.33485V31.6668C271.993 33.5084 273.484 35 275.326 35H298.658C300.499 35 301.991 33.5084 301.991 31.6668V8.33485C301.991 6.49329 300.499 5.00171 298.658 5.00171ZM281.992 28.3337H277.787V16.6677H281.992V28.3337ZM279.816 14.5295C278.531 14.5295 277.672 13.6729 277.672 12.5296C277.672 11.3863 278.529 10.5297 279.957 10.5297C281.242 10.5297 282.101 11.3863 282.101 12.5296C282.101 13.6729 281.244 14.5295 279.816 14.5295ZM296.991 28.3337H292.922V21.9574C292.922 20.1942 291.837 19.7875 291.43 19.7875C291.023 19.7875 289.667 20.0592 289.667 21.9574C289.667 22.2291 289.667 28.3337 289.667 28.3337H285.462V16.6677H289.667V18.2959C290.208 17.346 291.293 16.6677 293.328 16.6677C295.363 16.6677 296.991 18.2959 296.991 21.9574V28.3337Z" fill="white" fill-opacity="0.8"/>
<path d="M454.454 3.33521L456.918 12.2409V16.5115H459.054V12.2409L461.55 3.33521H459.399L458.503 7.38771C458.252 8.57097 458.092 9.41196 458.018 9.9136H457.953C457.848 9.21198 457.688 8.36471 457.468 7.37143L456.606 3.33521H454.454ZM464.04 6.69764C463.317 6.69764 462.734 6.83899 462.289 7.1273C461.844 7.41395 461.516 7.87263 461.306 8.50092C461.098 9.12922 460.994 9.96092 460.994 10.9975V12.3972C460.994 13.4221 461.084 14.2429 461.267 14.8612C461.45 15.4795 461.76 15.935 462.195 16.2283C462.63 16.5217 463.228 16.6678 463.991 16.6678C464.735 16.6678 465.326 16.5232 465.759 16.2349C466.192 15.9465 466.506 15.4943 466.7 14.871C466.893 14.2477 466.989 13.4238 466.989 12.3972V10.9975C466.989 9.96258 466.891 9.13399 466.693 8.51069C466.495 7.88906 466.179 7.43039 465.749 7.13707C465.319 6.84375 464.752 6.69764 464.04 6.69764ZM468.119 6.88643V14.0768C468.119 14.9667 468.268 15.6212 468.571 16.0396C468.875 16.4579 469.346 16.6678 469.984 16.6678C470.904 16.6678 471.597 16.2232 472.057 15.3332H472.103L472.292 16.5115H473.988V6.88643H471.823V14.5325C471.74 14.7108 471.612 14.8569 471.439 14.9719C471.266 15.0886 471.087 15.1444 470.899 15.1444C470.679 15.1444 470.522 15.0543 470.427 14.871C470.332 14.6877 470.283 14.3798 470.283 13.9498V6.88643H468.119ZM463.991 8.18844C464.295 8.18844 464.509 8.34695 464.629 8.66693C464.749 8.98524 464.808 9.49214 464.808 10.1838V13.1816C464.808 13.8933 464.749 14.408 464.629 14.7213C464.509 15.0346 464.296 15.1916 463.995 15.1932C463.691 15.1932 463.481 15.0346 463.366 14.7213C463.25 14.408 463.194 13.8933 463.194 13.1816V10.1838C463.194 9.49381 463.253 8.98691 463.373 8.66693C463.493 8.34861 463.698 8.18844 463.991 8.18844ZM453.321 18.3343C451.488 18.3343 449.988 19.8343 449.988 21.6675V33.3335C449.988 35.1667 451.488 36.6666 453.321 36.6666H476.653C478.487 36.6666 479.987 35.1667 479.987 33.3335V21.6675C479.987 19.8343 478.487 18.3343 476.653 18.3343H453.321ZM465.069 21.6675H466.83V25.9478H466.843C467.001 25.6379 467.228 25.3892 467.52 25.1992C467.811 25.0092 468.127 24.916 468.464 24.916C468.897 24.916 469.236 25.031 469.483 25.261C469.729 25.491 469.91 25.8626 470.02 26.3742C470.13 26.8875 470.182 27.5996 470.182 28.5095V29.7953H470.186C470.186 31.0069 470.038 31.8944 469.746 32.4644C469.455 33.0344 469.001 33.3205 468.382 33.3205C468.037 33.3205 467.725 33.2412 467.442 33.0828C467.158 32.9245 466.945 32.7068 466.804 32.4318H466.765L466.579 33.2H465.069V21.6675ZM454.132 22.0776H459.552V23.5521H457.735V33.2H455.948V23.5521H454.132V22.0776ZM473.483 24.9192C474.11 24.9192 474.592 25.0343 474.928 25.2643C475.263 25.4943 475.5 25.8535 475.638 26.3384C475.775 26.8251 475.843 27.4967 475.843 28.3533V29.7464H472.783V30.1598C472.783 30.6815 472.797 31.0717 472.829 31.3316C472.86 31.5916 472.924 31.7829 473.021 31.9013C473.117 32.0213 473.267 32.0803 473.47 32.0803C473.743 32.0803 473.931 31.973 474.033 31.7613C474.135 31.5496 474.191 31.1984 474.199 30.7034L475.778 30.7946C475.786 30.8646 475.791 30.9642 475.791 31.0875C475.791 31.8391 475.584 32.4004 475.172 32.7704C474.761 33.142 474.183 33.327 473.431 33.327C472.529 33.327 471.897 33.0424 471.533 32.4774C471.17 31.9124 470.99 31.0388 470.99 29.8539V28.4347C470.99 27.2147 471.178 26.3239 471.553 25.7623C471.928 25.2007 472.573 24.9192 473.483 24.9192ZM459.005 25.0755H460.837V31.0419C460.837 31.4036 460.878 31.6633 460.958 31.8166C461.038 31.9716 461.168 32.0477 461.355 32.0477C461.513 32.0477 461.669 31.9996 461.814 31.9013C461.96 31.8046 462.064 31.6802 462.136 31.5302V25.0755H463.969V33.2H463.965H462.533L462.377 32.204H462.335C461.945 32.9573 461.362 33.3335 460.583 33.3335C460.043 33.3335 459.649 33.1562 459.392 32.8029C459.135 32.4496 459.005 31.8961 459.005 31.1461V25.0755ZM473.444 26.1562C473.249 26.1562 473.104 26.2153 473.011 26.3287C472.918 26.4437 472.856 26.6318 472.826 26.8918C472.794 27.1518 472.78 27.5466 472.78 28.0766V28.6593H474.118V28.0766C474.118 27.555 474.101 27.1618 474.066 26.8918C474.032 26.6218 473.967 26.4322 473.874 26.3222C473.78 26.2122 473.639 26.1562 473.444 26.1562ZM467.64 26.2147C467.464 26.2147 467.302 26.2847 467.152 26.4263C467.002 26.568 466.895 26.7499 466.833 26.9699V31.5823C466.913 31.7239 467.017 31.8296 467.146 31.9013C467.274 31.9713 467.41 32.0087 467.562 32.0087C467.757 32.0087 467.909 31.9388 468.024 31.7971C468.139 31.6554 468.223 31.4176 468.272 31.081C468.32 30.746 468.343 30.2795 468.343 29.6879V28.643C468.343 28.0064 468.325 27.5167 468.285 27.1717C468.245 26.8267 468.173 26.5778 468.073 26.4328C467.972 26.2878 467.827 26.2147 467.64 26.2147Z" fill="white" fill-opacity="0.8"/>
<path d="M392.655 6.6665C391.355 7.43813 388.747 8.48973 387.214 8.79305C387.169 8.80471 387.132 8.81971 387.089 8.83138C385.734 7.49479 383.878 6.6665 381.823 6.6665C377.681 6.6665 374.323 10.0246 374.323 14.1661C374.323 14.3844 374.305 14.786 374.323 14.9994C368.735 14.9994 364.482 12.0729 361.432 8.33307C361.101 9.16636 360.956 10.4829 360.956 11.7195C360.956 14.0544 362.78 16.3476 365.622 17.7692C365.099 17.9042 364.522 18.0008 363.922 18.0008C362.954 18.0008 361.929 17.7459 360.991 16.9726C360.991 17.0009 360.991 17.0276 360.991 17.0576C360.991 20.3207 364.454 22.5423 367.534 23.1605C366.909 23.5289 365.649 23.5655 365.034 23.5655C364.6 23.5655 363.067 23.3672 362.657 23.2905C363.514 25.9654 366.604 27.4686 369.548 27.522C367.245 29.3285 365.647 29.9985 360.931 29.9985H359.324C362.304 31.9084 366.099 33.3333 369.902 33.3333C382.284 33.3333 389.322 23.8955 389.322 14.9994C389.322 14.856 389.319 14.556 389.314 14.2544C389.314 14.2244 389.322 14.1961 389.322 14.1661C389.322 14.1211 389.309 14.0777 389.309 14.0327C389.304 13.8061 389.299 13.5944 389.294 13.4844C390.611 12.5345 391.752 11.3496 392.655 9.99964C391.447 10.5363 390.151 10.8963 388.789 11.0596C390.179 10.2263 392.154 8.23975 392.655 6.6665Z" fill="white" fill-opacity="0.8"/>
</svg>
